<svg xmlns="http://www.w3.org/2000/svg" id="home_1_" width="20.98" height="19.956"
    viewBox="0 0 20.98 19.956">
    <defs>
        <style>
            .cls-1{fill:#e22c24}
        </style>
    </defs>
    <path id="Path_14095"
        d="M9.895-499.554a1.419 1.419 0 0 0-.307.151c-.057.045-2.243 2.03-4.859 4.417-5.375 4.9-4.986 4.5-4.953 5.1a.777.777 0 0 0 .156.524 1.253 1.253 0 0 0 .27.291c.266.184.4.2 1.273.209h.831l.008 4.368c.012 4.863-.008 4.515.287 4.728l.135.094 2.735.012c2.64.008 2.739.008 2.915-.07a.648.648 0 0 0 .266-.217c.078-.131.082-.2.082-2.849v-2.71h3.029v2.71c0 2.653 0 2.718.082 2.849a.648.648 0 0 0 .266.217c.176.078.274.078 2.915.07l2.735-.012.135-.094c.295-.213.274.135.287-4.728l.008-4.368h.831c.872 0 1.007-.025 1.273-.209a1.29 1.29 0 0 0 .274-.295.775.775 0 0 0 .156-.528c.025-.6.413-.2-5.023-5.15-3.3-3.009-4.876-4.417-4.994-4.47a1.114 1.114 0 0 0-.813-.04z"
        class="cls-1" transform="translate(0.243 499.612)" />
    <path id="Path_14096"
        d="M344-469.967c0 .037 4.728 4.347 4.769 4.347.012 0 .016-.88.012-1.957-.012-1.875-.016-1.957-.094-2.1a.721.721 0 0 0-.266-.237c-.18-.09-.184-.09-2.3-.09-1.167.004-2.121.02-2.121.037z"
        class="cls-1" transform="translate(-329.908 471.212)" />
</svg>
