<svg height="22.952" viewBox="0 0 20.821 22.952" width="20.821" xmlns="http://www.w3.org/2000/svg">
    <g fill="#fff">
        <path
            d="m18.428 28.336a.6.6 0 0 0 -.587.472 1.158 1.158 0 0 1 -.231.5.874.874 0 0 1 -.744.273.888.888 0 0 1 -.744-.273 1.158 1.158 0 0 1 -.231-.5.6.6 0 0 0 -.587-.472.6.6 0 0 0 -.587.735 2.065 2.065 0 0 0 2.15 1.715 2.062 2.062 0 0 0 2.15-1.715.605.605 0 0 0 -.587-.735z"
            stroke="#fff" stroke-width=".25" transform="translate(-9.671 -7.959)" />
        <path
            d="m14.591 13.7c-.712-.938-2.113-1.489-2.113-5.691 0-4.313-1.9-6.047-3.68-6.463-.166-.042-.287-.1-.287-.273v-.136a1.134 1.134 0 0 0 -1.111-1.137h-.025a1.134 1.134 0 0 0 -1.109 1.137v.134c0 .171-.12.231-.287.273-1.779.421-3.679 2.15-3.679 6.463 0 4.2-1.4 4.748-2.113 5.691a.918.918 0 0 0 .735 1.47h12.948a.918.918 0 0 0 .721-1.468zm-1.8.268h-10.782a.2.2 0 0 1 -.153-.337 5.6 5.6 0 0 0 .971-1.544 10.476 10.476 0 0 0 .661-4.077 7.089 7.089 0 0 1 .966-4.013 2.966 2.966 0 0 1 1.789-1.279 1.62 1.62 0 0 0 .86-.485.366.366 0 0 1 .55-.009 1.675 1.675 0 0 0 .869.495 2.966 2.966 0 0 1 1.789 1.276 7.089 7.089 0 0 1 .966 4.013 10.476 10.476 0 0 0 .661 4.077 5.664 5.664 0 0 0 .994 1.567.191.191 0 0 1 -.143.313z"
            stroke="#fff" stroke-width=".25"
            transform="matrix(.9612617 .27563736 -.27563736 .9612617 4.346 1.36)" />
        <path
            d="m4.946 1.265-1.275-1.265a9.2 9.2 0 0 0 -3.671 6.941h1.782a7.454 7.454 0 0 1 3.164-5.676zm11.04 5.677h1.782a9.253 9.253 0 0 0 -3.668-6.942l-1.268 1.265a7.5 7.5 0 0 1 3.154 5.676z"
            stroke="#d22921" transform="matrix(.9612617 .27563736 -.27563736 .9612617 3.055 .78)" />
    </g>
</svg>