<svg xmlns="http://www.w3.org/2000/svg" width="15.477" height="20.267" viewBox="0 0 15.477 20.267">
    <g>
        <path fill="#e22c24"
            d="M62.855-511.41v.586l-.289.024a2.325 2.325 0 0 0-1.975 1.564l-.091.265v15.4l.1.269a2.4 2.4 0 0 0 1.18 1.342c.511.241.146.23 6.46.23 6.428 0 6 .016 6.543-.265a2.436 2.436 0 0 0 1.108-1.31l.091-.265v-15.4l-.091-.265a2.336 2.336 0 0 0-1.975-1.564l-.289-.024V-512h-1.232v1.188h-1.148V-512H70.02v1.188h-1.148V-512h-1.267v1.188h-1.148V-512H65.23v1.188h-1.148V-512h-1.227zm1.188 1.805v1.168h-1.148v-2.335h1.148zm2.375 0v1.168H65.27v-2.335h1.148zm2.415 0v1.168h-1.188v-2.335h1.188zm2.375 0v1.168h-1.149v-2.335h1.148zm2.375 0v1.168h-1.149v-2.335h1.148zm-4.75 2.989v.594h1.187v1.148h-1.188v1.188h-1.187v-1.187h-1.188v-1.148h1.188v-1.188h1.188zm-3.582 1.433a3.393 3.393 0 0 0 .344 1.156 3.274 3.274 0 0 0 1.259 1.243 2.9 2.9 0 0 0 1.385.325 2.971 2.971 0 0 0 2.989-2.723l.028-.245h1.14v.107a5.158 5.158 0 0 1-.237 1.219 4.129 4.129 0 0 1-5.645 2.419 3.825 3.825 0 0 1-1.1-.736 4.359 4.359 0 0 1-1.134-1.782 5.761 5.761 0 0 1-.2-1.12v-.107h1.14zm-.02 5.712v.574h-1.742v-1.148h1.741zm7.758 0v.574h-6.532v-1.148h6.531zM65.23-497.1v.574h-1.741v-1.148h1.741zm7.758 0v.574h-6.531v-1.148h6.531zm-7.758 2.375v.574h-1.741v-1.149h1.741zm7.758 0v.574h-6.531v-1.149h6.531z"
            transform="translate(-60.5 512)" />
    </g>
</svg>
