<svg xmlns="http://www.w3.org/2000/svg" width="20.539" height="20.539" viewBox="0 0 20.539 20.539">
    <g>
        <path fill="#e22c24" d="M8.2-511.92a.678.678 0 0 0-.193.172 6.745 6.745 0 0 0-.249.943l-.185.846-.345.128c-.189.068-.449.181-.574.241a1.62 1.62 0 0 1-.269.116 6.845 6.845 0 0 1-.654-.393c-.746-.481-.774-.5-.975-.534a.455.455 0 0 0-.321.044 31.935 31.935 0 0 0-2.8 2.808.72.72 0 0 0 .056.562c.028.056.233.377.449.714a6.846 6.846 0 0 1 .393.654 1.619 1.619 0 0 1-.116.269c-.06.124-.172.385-.241.574l-.132.345-.786.172c-.895.193-1.031.245-1.159.437l-.099.138v3.907l.092.136c.128.193.265.245 1.159.437l.786.172.132.345c.068.189.181.449.241.574a1.62 1.62 0 0 1 .116.269 6.842 6.842 0 0 1-.393.654c-.481.746-.5.774-.534.975a.455.455 0 0 0 .044.321 31.933 31.933 0 0 0 2.808 2.8.72.72 0 0 0 .562-.056c.056-.028.377-.233.714-.449a6.845 6.845 0 0 1 .654-.393 1.618 1.618 0 0 1 .269.116c.124.06.385.172.574.241l.345.128.185.846a6.746 6.746 0 0 0 .249.943.678.678 0 0 0 .193.173c.124.076.217.08 2.074.08s1.95 0 2.074-.08a.678.678 0 0 0 .193-.173 6.746 6.746 0 0 0 .249-.943l.185-.846.345-.128c.189-.068.449-.181.574-.241a1.618 1.618 0 0 1 .269-.116 6.845 6.845 0 0 1 .654.393c.337.217.658.421.714.449a.72.72 0 0 0 .562.056 31.933 31.933 0 0 0 2.808-2.8.455.455 0 0 0 .044-.321c-.036-.2-.052-.229-.534-.975a6.841 6.841 0 0 1-.393-.654 1.62 1.62 0 0 1 .116-.269c.06-.124.173-.385.241-.574l.132-.345.786-.172c.895-.193 1.031-.245 1.159-.437l.092-.136v-3.907l-.092-.136c-.128-.193-.265-.245-1.159-.437l-.786-.172-.132-.345c-.068-.189-.181-.449-.241-.574a1.619 1.619 0 0 1-.116-.269 6.845 6.845 0 0 1 .393-.654c.481-.746.5-.774.534-.975a.455.455 0 0 0-.044-.321 31.941 31.941 0 0 0-2.808-2.8.72.72 0 0 0-.562.056c-.056.028-.377.233-.714.449a6.845 6.845 0 0 1-.654.393 1.62 1.62 0 0 1-.269-.116c-.124-.06-.385-.173-.574-.241l-.345-.128-.185-.846a6.745 6.745 0 0 0-.249-.943.678.678 0 0 0-.193-.172c-.124-.076-.217-.08-2.074-.08s-1.95-.005-2.07.075zm2.961 6.635a3.8 3.8 0 0 1 2.672 2.688 5.235 5.235 0 0 1 0 1.733 3.789 3.789 0 0 1-2.692 2.692 3.225 3.225 0 0 1-.867.068 3.225 3.225 0 0 1-.867-.068 3.789 3.789 0 0 1-2.692-2.692 3.225 3.225 0 0 1-.068-.867 2.79 2.79 0 0 1 .257-1.4 3.782 3.782 0 0 1 2.563-2.169l.3-.06a6.607 6.607 0 0 1 1.389.075z" transform="translate(0 512)"/>
    </g>
</svg>
